<svg class="rich-terminal" viewBox="0 0 1385 830.8" xmlns="http://www.w3.org/2000/svg">
    <!-- Generated with Rich https://www.textualize.io -->
    <style>

    @font-face {
        font-family: "Fira Code";
        src: local("FiraCode-Regular"),
                url("https://cdnjs.cloudflare.com/ajax/libs/firacode/6.2.0/woff2/FiraCode-Regular.woff2") format("woff2"),
                url("https://cdnjs.cloudflare.com/ajax/libs/firacode/6.2.0/woff/FiraCode-Regular.woff") format("woff");
        font-style: normal;
        font-weight: 400;
    }
    @font-face {
        font-family: "Fira Code";
        src: local("FiraCode-Bold"),
                url("https://cdnjs.cloudflare.com/ajax/libs/firacode/6.2.0/woff2/FiraCode-Bold.woff2") format("woff2"),
                url("https://cdnjs.cloudflare.com/ajax/libs/firacode/6.2.0/woff/FiraCode-Bold.woff") format("woff");
        font-style: bold;
        font-weight: 700;
    }

    .terminal-3178757338-matrix {
        font-family: Fira Code, monospace;
        font-size: 20px;
        line-height: 24.4px;
        font-variant-east-asian: full-width;
    }

    .terminal-3178757338-title {
        font-size: 18px;
        font-weight: bold;
        font-family: arial;
    }

    .terminal-3178757338-r1 { fill: #e1e1e1 }
.terminal-3178757338-r2 { fill: #c5c8c6 }
.terminal-3178757338-r3 { fill: #e1e1e1;font-weight: bold }
.terminal-3178757338-r4 { fill: #e1e1e1;font-weight: bold;text-decoration: underline; }
.terminal-3178757338-r5 { fill: #d0b344;font-weight: bold }
.terminal-3178757338-r6 { fill: #68a0b3;font-weight: bold }
.terminal-3178757338-r7 { fill: #939393 }
.terminal-3178757338-r8 { fill: #939393;font-weight: bold }
    </style>

    <defs>
    <clipPath id="terminal-3178757338-clip-terminal">
      <rect x="0" y="0" width="1365.3999999999999" height="779.8" />
    </clipPath>
    <clipPath id="terminal-3178757338-line-0">
    <rect x="0" y="1.5" width="1366.4" height="24.65"/>
            </clipPath>
<clipPath id="terminal-3178757338-line-1">
    <rect x="0" y="25.9" width="1366.4" height="24.65"/>
            </clipPath>
<clipPath id="terminal-3178757338-line-2">
    <rect x="0" y="50.3" width="1366.4" height="24.65"/>
            </clipPath>
<clipPath id="terminal-3178757338-line-3">
    <rect x="0" y="74.7" width="1366.4" height="24.65"/>
            </clipPath>
<clipPath id="terminal-3178757338-line-4">
    <rect x="0" y="99.1" width="1366.4" height="24.65"/>
            </clipPath>
<clipPath id="terminal-3178757338-line-5">
    <rect x="0" y="123.5" width="1366.4" height="24.65"/>
            </clipPath>
<clipPath id="terminal-3178757338-line-6">
    <rect x="0" y="147.9" width="1366.4" height="24.65"/>
            </clipPath>
<clipPath id="terminal-3178757338-line-7">
    <rect x="0" y="172.3" width="1366.4" height="24.65"/>
            </clipPath>
<clipPath id="terminal-3178757338-line-8">
    <rect x="0" y="196.7" width="1366.4" height="24.65"/>
            </clipPath>
<clipPath id="terminal-3178757338-line-9">
    <rect x="0" y="221.1" width="1366.4" height="24.65"/>
            </clipPath>
<clipPath id="terminal-3178757338-line-10">
    <rect x="0" y="245.5" width="1366.4" height="24.65"/>
            </clipPath>
<clipPath id="terminal-3178757338-line-11">
    <rect x="0" y="269.9" width="1366.4" height="24.65"/>
            </clipPath>
<clipPath id="terminal-3178757338-line-12">
    <rect x="0" y="294.3" width="1366.4" height="24.65"/>
            </clipPath>
<clipPath id="terminal-3178757338-line-13">
    <rect x="0" y="318.7" width="1366.4" height="24.65"/>
            </clipPath>
<clipPath id="terminal-3178757338-line-14">
    <rect x="0" y="343.1" width="1366.4" height="24.65"/>
            </clipPath>
<clipPath id="terminal-3178757338-line-15">
    <rect x="0" y="367.5" width="1366.4" height="24.65"/>
            </clipPath>
<clipPath id="terminal-3178757338-line-16">
    <rect x="0" y="391.9" width="1366.4" height="24.65"/>
            </clipPath>
<clipPath id="terminal-3178757338-line-17">
    <rect x="0" y="416.3" width="1366.4" height="24.65"/>
            </clipPath>
<clipPath id="terminal-3178757338-line-18">
    <rect x="0" y="440.7" width="1366.4" height="24.65"/>
            </clipPath>
<clipPath id="terminal-3178757338-line-19">
    <rect x="0" y="465.1" width="1366.4" height="24.65"/>
            </clipPath>
<clipPath id="terminal-3178757338-line-20">
    <rect x="0" y="489.5" width="1366.4" height="24.65"/>
            </clipPath>
<clipPath id="terminal-3178757338-line-21">
    <rect x="0" y="513.9" width="1366.4" height="24.65"/>
            </clipPath>
<clipPath id="terminal-3178757338-line-22">
    <rect x="0" y="538.3" width="1366.4" height="24.65"/>
            </clipPath>
<clipPath id="terminal-3178757338-line-23">
    <rect x="0" y="562.7" width="1366.4" height="24.65"/>
            </clipPath>
<clipPath id="terminal-3178757338-line-24">
    <rect x="0" y="587.1" width="1366.4" height="24.65"/>
            </clipPath>
<clipPath id="terminal-3178757338-line-25">
    <rect x="0" y="611.5" width="1366.4" height="24.65"/>
            </clipPath>
<clipPath id="terminal-3178757338-line-26">
    <rect x="0" y="635.9" width="1366.4" height="24.65"/>
            </clipPath>
<clipPath id="terminal-3178757338-line-27">
    <rect x="0" y="660.3" width="1366.4" height="24.65"/>
            </clipPath>
<clipPath id="terminal-3178757338-line-28">
    <rect x="0" y="684.7" width="1366.4" height="24.65"/>
            </clipPath>
<clipPath id="terminal-3178757338-line-29">
    <rect x="0" y="709.1" width="1366.4" height="24.65"/>
            </clipPath>
<clipPath id="terminal-3178757338-line-30">
    <rect x="0" y="733.5" width="1366.4" height="24.65"/>
            </clipPath>
    </defs>

    <rect fill="#292929" stroke="rgba(255,255,255,0.35)" stroke-width="1" x="1" y="1" width="1383" height="828.8" rx="8"/><text class="terminal-3178757338-title" fill="#c5c8c6" text-anchor="middle" x="691" y="27">AI&#160;assisted&#160;coding</text>
            <g transform="translate(26,22)">
            <circle cx="0" cy="0" r="7" fill="#ff5f57"/>
            <circle cx="22" cy="0" r="7" fill="#febc2e"/>
            <circle cx="44" cy="0" r="7" fill="#28c840"/>
            </g>
        
    <g transform="translate(9, 41)" clip-path="url(#terminal-3178757338-clip-terminal)">
    <rect fill="#1e1e1e" x="0" y="1.5" width="1366.4" height="24.65" shape-rendering="crispEdges"/><rect fill="#1e1e1e" x="0" y="25.9" width="1366.4" height="24.65" shape-rendering="crispEdges"/><rect fill="#1e1e1e" x="0" y="50.3" width="1366.4" height="24.65" shape-rendering="crispEdges"/><rect fill="#1e1e1e" x="0" y="74.7" width="1366.4" height="24.65" shape-rendering="crispEdges"/><rect fill="#1e1e1e" x="0" y="99.1" width="1366.4" height="24.65" shape-rendering="crispEdges"/><rect fill="#1e1e1e" x="0" y="123.5" width="1366.4" height="24.65" shape-rendering="crispEdges"/><rect fill="#1e1e1e" x="0" y="147.9" width="61" height="24.65" shape-rendering="crispEdges"/><rect fill="#1e1e1e" x="61" y="147.9" width="1244.4" height="24.65" shape-rendering="crispEdges"/><rect fill="#1e1e1e" x="1305.4" y="147.9" width="61" height="24.65" shape-rendering="crispEdges"/><rect fill="#1e1e1e" x="0" y="172.3" width="61" height="24.65" shape-rendering="crispEdges"/><rect fill="#1e1e1e" x="61" y="172.3" width="12.2" height="24.65" shape-rendering="crispEdges"/><rect fill="#1e1e1e" x="73.2" y="172.3" width="12.2" height="24.65" shape-rendering="crispEdges"/><rect fill="#1e1e1e" x="85.4" y="172.3" width="463.6" height="24.65" shape-rendering="crispEdges"/><rect fill="#1e1e1e" x="549" y="172.3" width="268.4" height="24.65" shape-rendering="crispEdges"/><rect fill="#1e1e1e" x="817.4" y="172.3" width="463.6" height="24.65" shape-rendering="crispEdges"/><rect fill="#1e1e1e" x="1281" y="172.3" width="12.2" height="24.65" shape-rendering="crispEdges"/><rect fill="#1e1e1e" x="1293.2" y="172.3" width="12.2" height="24.65" shape-rendering="crispEdges"/><rect fill="#1e1e1e" x="1305.4" y="172.3" width="61" height="24.65" shape-rendering="crispEdges"/><rect fill="#1e1e1e" x="0" y="196.7" width="61" height="24.65" shape-rendering="crispEdges"/><rect fill="#1e1e1e" x="61" y="196.7" width="1244.4" height="24.65" shape-rendering="crispEdges"/><rect fill="#1e1e1e" x="1305.4" y="196.7" width="61" height="24.65" shape-rendering="crispEdges"/><rect fill="#1e1e1e" x="0" y="221.1" width="61" height="24.65" shape-rendering="crispEdges"/><rect fill="#1e1e1e" x="61" y="221.1" width="1244.4" height="24.65" shape-rendering="crispEdges"/><rect fill="#1e1e1e" x="1305.4" y="221.1" width="61" height="24.65" shape-rendering="crispEdges"/><rect fill="#1e1e1e" x="0" y="245.5" width="61" height="24.65" shape-rendering="crispEdges"/><rect fill="#1e1e1e" x="61" y="245.5" width="0" height="24.65" shape-rendering="crispEdges"/><rect fill="#1e1e1e" x="61" y="245.5" width="1244.4" height="24.65" shape-rendering="crispEdges"/><rect fill="#1e1e1e" x="1305.4" y="245.5" width="61" height="24.65" shape-rendering="crispEdges"/><rect fill="#1e1e1e" x="0" y="269.9" width="61" height="24.65" shape-rendering="crispEdges"/><rect fill="#1e1e1e" x="61" y="269.9" width="524.6" height="24.65" shape-rendering="crispEdges"/><rect fill="#1e1e1e" x="585.6" y="269.9" width="195.2" height="24.65" shape-rendering="crispEdges"/><rect fill="#1e1e1e" x="780.8" y="269.9" width="524.6" height="24.65" shape-rendering="crispEdges"/><rect fill="#1e1e1e" x="1305.4" y="269.9" width="61" height="24.65" shape-rendering="crispEdges"/><rect fill="#1e1e1e" x="0" y="294.3" width="61" height="24.65" shape-rendering="crispEdges"/><rect fill="#1e1e1e" x="61" y="294.3" width="1244.4" height="24.65" shape-rendering="crispEdges"/><rect fill="#1e1e1e" x="1305.4" y="294.3" width="61" height="24.65" shape-rendering="crispEdges"/><rect fill="#1e1e1e" x="0" y="318.7" width="61" height="24.65" shape-rendering="crispEdges"/><rect fill="#1e1e1e" x="61" y="318.7" width="36.6" height="24.65" shape-rendering="crispEdges"/><rect fill="#1e1e1e" x="97.6" y="318.7" width="85.4" height="24.65" shape-rendering="crispEdges"/><rect fill="#4b4e55" x="183" y="318.7" width="85.4" height="24.65" shape-rendering="crispEdges"/><rect fill="#1e1e1e" x="268.4" y="318.7" width="402.6" height="24.65" shape-rendering="crispEdges"/><rect fill="#1e1e1e" x="671" y="318.7" width="634.4" height="24.65" shape-rendering="crispEdges"/><rect fill="#1e1e1e" x="1305.4" y="318.7" width="61" height="24.65" shape-rendering="crispEdges"/><rect fill="#1e1e1e" x="0" y="343.1" width="61" height="24.65" shape-rendering="crispEdges"/><rect fill="#1e1e1e" x="61" y="343.1" width="36.6" height="24.65" shape-rendering="crispEdges"/><rect fill="#1e1e1e" x="97.6" y="343.1" width="85.4" height="24.65" shape-rendering="crispEdges"/><rect fill="#4b4e55" x="183" y="343.1" width="146.4" height="24.65" shape-rendering="crispEdges"/><rect fill="#1e1e1e" x="329.4" y="343.1" width="378.2" height="24.65" shape-rendering="crispEdges"/><rect fill="#1e1e1e" x="707.6" y="343.1" width="597.8" height="24.65" shape-rendering="crispEdges"/><rect fill="#1e1e1e" x="1305.4" y="343.1" width="61" height="24.65" shape-rendering="crispEdges"/><rect fill="#1e1e1e" x="0" y="367.5" width="61" height="24.65" shape-rendering="crispEdges"/><rect fill="#1e1e1e" x="61" y="367.5" width="1244.4" height="24.65" shape-rendering="crispEdges"/><rect fill="#1e1e1e" x="1305.4" y="367.5" width="61" height="24.65" shape-rendering="crispEdges"/><rect fill="#1e1e1e" x="0" y="391.9" width="61" height="24.65" shape-rendering="crispEdges"/><rect fill="#1e1e1e" x="61" y="391.9" width="0" height="24.65" shape-rendering="crispEdges"/><rect fill="#1e1e1e" x="61" y="391.9" width="1244.4" height="24.65" shape-rendering="crispEdges"/><rect fill="#1e1e1e" x="1305.4" y="391.9" width="61" height="24.65" shape-rendering="crispEdges"/><rect fill="#1e1e1e" x="0" y="416.3" width="61" height="24.65" shape-rendering="crispEdges"/><rect fill="#1e1e1e" x="61" y="416.3" width="536.8" height="24.65" shape-rendering="crispEdges"/><rect fill="#1e1e1e" x="597.8" y="416.3" width="170.8" height="24.65" shape-rendering="crispEdges"/><rect fill="#1e1e1e" x="768.6" y="416.3" width="536.8" height="24.65" shape-rendering="crispEdges"/><rect fill="#1e1e1e" x="1305.4" y="416.3" width="61" height="24.65" shape-rendering="crispEdges"/><rect fill="#1e1e1e" x="0" y="440.7" width="61" height="24.65" shape-rendering="crispEdges"/><rect fill="#1e1e1e" x="61" y="440.7" width="1244.4" height="24.65" shape-rendering="crispEdges"/><rect fill="#1e1e1e" x="1305.4" y="440.7" width="61" height="24.65" shape-rendering="crispEdges"/><rect fill="#1e1e1e" x="0" y="465.1" width="61" height="24.65" shape-rendering="crispEdges"/><rect fill="#1e1e1e" x="61" y="465.1" width="36.6" height="24.65" shape-rendering="crispEdges"/><rect fill="#1e1e1e" x="97.6" y="465.1" width="85.4" height="24.65" shape-rendering="crispEdges"/><rect fill="#4b4e55" x="183" y="465.1" width="48.8" height="24.65" shape-rendering="crispEdges"/><rect fill="#1e1e1e" x="231.8" y="465.1" width="207.4" height="24.65" shape-rendering="crispEdges"/><rect fill="#1e1e1e" x="439.2" y="465.1" width="866.2" height="24.65" shape-rendering="crispEdges"/><rect fill="#1e1e1e" x="1305.4" y="465.1" width="61" height="24.65" shape-rendering="crispEdges"/><rect fill="#1e1e1e" x="0" y="489.5" width="61" height="24.65" shape-rendering="crispEdges"/><rect fill="#1e1e1e" x="61" y="489.5" width="36.6" height="24.65" shape-rendering="crispEdges"/><rect fill="#4b4e55" x="97.6" y="489.5" width="146.4" height="24.65" shape-rendering="crispEdges"/><rect fill="#1e1e1e" x="244" y="489.5" width="195.2" height="24.65" shape-rendering="crispEdges"/><rect fill="#1e1e1e" x="439.2" y="489.5" width="866.2" height="24.65" shape-rendering="crispEdges"/><rect fill="#1e1e1e" x="1305.4" y="489.5" width="61" height="24.65" shape-rendering="crispEdges"/><rect fill="#1e1e1e" x="0" y="513.9" width="61" height="24.65" shape-rendering="crispEdges"/><rect fill="#1e1e1e" x="61" y="513.9" width="36.6" height="24.65" shape-rendering="crispEdges"/><rect fill="#4b4e55" x="97.6" y="513.9" width="122" height="24.65" shape-rendering="crispEdges"/><rect fill="#1e1e1e" x="219.6" y="513.9" width="122" height="24.65" shape-rendering="crispEdges"/><rect fill="#4b4e55" x="341.6" y="513.9" width="73.2" height="24.65" shape-rendering="crispEdges"/><rect fill="#1e1e1e" x="414.8" y="513.9" width="109.8" height="24.65" shape-rendering="crispEdges"/><rect fill="#1e1e1e" x="524.6" y="513.9" width="780.8" height="24.65" shape-rendering="crispEdges"/><rect fill="#1e1e1e" x="1305.4" y="513.9" width="61" height="24.65" shape-rendering="crispEdges"/><rect fill="#1e1e1e" x="0" y="538.3" width="61" height="24.65" shape-rendering="crispEdges"/><rect fill="#1e1e1e" x="61" y="538.3" width="36.6" height="24.65" shape-rendering="crispEdges"/><rect fill="#4b4e55" x="97.6" y="538.3" width="134.2" height="24.65" shape-rendering="crispEdges"/><rect fill="#1e1e1e" x="231.8" y="538.3" width="170.8" height="24.65" shape-rendering="crispEdges"/><rect fill="#1e1e1e" x="402.6" y="538.3" width="902.8" height="24.65" shape-rendering="crispEdges"/><rect fill="#1e1e1e" x="1305.4" y="538.3" width="61" height="24.65" shape-rendering="crispEdges"/><rect fill="#1e1e1e" x="0" y="562.7" width="1366.4" height="24.65" shape-rendering="crispEdges"/><rect fill="#1e1e1e" x="0" y="587.1" width="1366.4" height="24.65" shape-rendering="crispEdges"/><rect fill="#1e1e1e" x="0" y="611.5" width="1366.4" height="24.65" shape-rendering="crispEdges"/><rect fill="#1e1e1e" x="0" y="635.9" width="1366.4" height="24.65" shape-rendering="crispEdges"/><rect fill="#1e1e1e" x="0" y="660.3" width="1366.4" height="24.65" shape-rendering="crispEdges"/><rect fill="#1e1e1e" x="0" y="684.7" width="1366.4" height="24.65" shape-rendering="crispEdges"/><rect fill="#1e1e1e" x="0" y="709.1" width="1366.4" height="24.65" shape-rendering="crispEdges"/><rect fill="#1e1e1e" x="0" y="733.5" width="1366.4" height="24.65" shape-rendering="crispEdges"/><rect fill="#1e1e1e" x="0" y="757.9" width="439.2" height="24.65" shape-rendering="crispEdges"/><rect fill="#1e1e1e" x="439.2" y="757.9" width="12.2" height="24.65" shape-rendering="crispEdges"/><rect fill="#1e1e1e" x="451.4" y="757.9" width="439.2" height="24.65" shape-rendering="crispEdges"/><rect fill="#1e1e1e" x="890.6" y="757.9" width="12.2" height="24.65" shape-rendering="crispEdges"/><rect fill="#1e1e1e" x="902.8" y="757.9" width="463.6" height="24.65" shape-rendering="crispEdges"/>
    <g class="terminal-3178757338-matrix">
    <text class="terminal-3178757338-r2" x="1366.4" y="20" textLength="12.2" clip-path="url(#terminal-3178757338-line-0)">
</text><text class="terminal-3178757338-r2" x="1366.4" y="44.4" textLength="12.2" clip-path="url(#terminal-3178757338-line-1)">
</text><text class="terminal-3178757338-r2" x="1366.4" y="68.8" textLength="12.2" clip-path="url(#terminal-3178757338-line-2)">
</text><text class="terminal-3178757338-r2" x="1366.4" y="93.2" textLength="12.2" clip-path="url(#terminal-3178757338-line-3)">
</text><text class="terminal-3178757338-r2" x="1366.4" y="117.6" textLength="12.2" clip-path="url(#terminal-3178757338-line-4)">
</text><text class="terminal-3178757338-r2" x="1366.4" y="142" textLength="12.2" clip-path="url(#terminal-3178757338-line-5)">
</text><text class="terminal-3178757338-r1" x="61" y="166.4" textLength="1244.4" clip-path="url(#terminal-3178757338-line-6)">┏━━━━━━━━━━━━━━━━━━━━━━━━━━━━━━━━━━━━━━━━━━━━━━━━━━━━━━━━━━━━━━━━━━━━━━━━━━━━━━━━━━━━━━━━━━━━━━━━━━━━┓</text><text class="terminal-3178757338-r2" x="1366.4" y="166.4" textLength="12.2" clip-path="url(#terminal-3178757338-line-6)">
</text><text class="terminal-3178757338-r1" x="61" y="190.8" textLength="12.2" clip-path="url(#terminal-3178757338-line-7)">┃</text><text class="terminal-3178757338-r3" x="549" y="190.8" textLength="268.4" clip-path="url(#terminal-3178757338-line-7)">Demo&#160;of&#160;GitHub&#160;Copilot</text><text class="terminal-3178757338-r1" x="1293.2" y="190.8" textLength="12.2" clip-path="url(#terminal-3178757338-line-7)">┃</text><text class="terminal-3178757338-r2" x="1366.4" y="190.8" textLength="12.2" clip-path="url(#terminal-3178757338-line-7)">
</text><text class="terminal-3178757338-r1" x="61" y="215.2" textLength="1244.4" clip-path="url(#terminal-3178757338-line-8)">┗━━━━━━━━━━━━━━━━━━━━━━━━━━━━━━━━━━━━━━━━━━━━━━━━━━━━━━━━━━━━━━━━━━━━━━━━━━━━━━━━━━━━━━━━━━━━━━━━━━━━┛</text><text class="terminal-3178757338-r2" x="1366.4" y="215.2" textLength="12.2" clip-path="url(#terminal-3178757338-line-8)">
</text><text class="terminal-3178757338-r2" x="1366.4" y="239.6" textLength="12.2" clip-path="url(#terminal-3178757338-line-9)">
</text><text class="terminal-3178757338-r2" x="1366.4" y="264" textLength="12.2" clip-path="url(#terminal-3178757338-line-10)">
</text><text class="terminal-3178757338-r4" x="585.6" y="288.4" textLength="195.2" clip-path="url(#terminal-3178757338-line-11)">VS&#160;Code&#160;Plugins:</text><text class="terminal-3178757338-r2" x="1366.4" y="288.4" textLength="12.2" clip-path="url(#terminal-3178757338-line-11)">
</text><text class="terminal-3178757338-r2" x="1366.4" y="312.8" textLength="12.2" clip-path="url(#terminal-3178757338-line-12)">
</text><text class="terminal-3178757338-r5" x="61" y="337.2" textLength="36.6" clip-path="url(#terminal-3178757338-line-13)">&#160;•&#160;</text><text class="terminal-3178757338-r1" x="97.6" y="337.2" textLength="85.4" clip-path="url(#terminal-3178757338-line-13)">GitHub&#160;</text><text class="terminal-3178757338-r6" x="183" y="337.2" textLength="85.4" clip-path="url(#terminal-3178757338-line-13)">Copilot</text><text class="terminal-3178757338-r1" x="268.4" y="337.2" textLength="402.6" clip-path="url(#terminal-3178757338-line-13)">&#160;-&#160;autocomplete-style&#160;suggestions</text><text class="terminal-3178757338-r2" x="1366.4" y="337.2" textLength="12.2" clip-path="url(#terminal-3178757338-line-13)">
</text><text class="terminal-3178757338-r5" x="61" y="361.6" textLength="36.6" clip-path="url(#terminal-3178757338-line-14)">&#160;•&#160;</text><text class="terminal-3178757338-r1" x="97.6" y="361.6" textLength="85.4" clip-path="url(#terminal-3178757338-line-14)">GitHub&#160;</text><text class="terminal-3178757338-r6" x="183" y="361.6" textLength="146.4" clip-path="url(#terminal-3178757338-line-14)">Copilot&#160;Chat</text><text class="terminal-3178757338-r1" x="329.4" y="361.6" textLength="378.2" clip-path="url(#terminal-3178757338-line-14)">&#160;-&#160;conversational&#160;AI&#160;assistance</text><text class="terminal-3178757338-r2" x="1366.4" y="361.6" textLength="12.2" clip-path="url(#terminal-3178757338-line-14)">
</text><text class="terminal-3178757338-r2" x="1366.4" y="386" textLength="12.2" clip-path="url(#terminal-3178757338-line-15)">
</text><text class="terminal-3178757338-r2" x="1366.4" y="410.4" textLength="12.2" clip-path="url(#terminal-3178757338-line-16)">
</text><text class="terminal-3178757338-r4" x="597.8" y="434.8" textLength="170.8" clip-path="url(#terminal-3178757338-line-17)">Sample&#160;project</text><text class="terminal-3178757338-r2" x="1366.4" y="434.8" textLength="12.2" clip-path="url(#terminal-3178757338-line-17)">
</text><text class="terminal-3178757338-r2" x="1366.4" y="459.2" textLength="12.2" clip-path="url(#terminal-3178757338-line-18)">
</text><text class="terminal-3178757338-r5" x="61" y="483.6" textLength="36.6" clip-path="url(#terminal-3178757338-line-19)">&#160;•&#160;</text><text class="terminal-3178757338-r1" x="97.6" y="483.6" textLength="85.4" clip-path="url(#terminal-3178757338-line-19)">Simple&#160;</text><text class="terminal-3178757338-r6" x="183" y="483.6" textLength="48.8" clip-path="url(#terminal-3178757338-line-19)">Todo</text><text class="terminal-3178757338-r1" x="231.8" y="483.6" textLength="207.4" clip-path="url(#terminal-3178757338-line-19)">&#160;list&#160;application</text><text class="terminal-3178757338-r2" x="1366.4" y="483.6" textLength="12.2" clip-path="url(#terminal-3178757338-line-19)">
</text><text class="terminal-3178757338-r5" x="61" y="508" textLength="36.6" clip-path="url(#terminal-3178757338-line-20)">&#160;•&#160;</text><text class="terminal-3178757338-r6" x="97.6" y="508" textLength="146.4" clip-path="url(#terminal-3178757338-line-20)">Python&#160;Flask</text><text class="terminal-3178757338-r1" x="244" y="508" textLength="195.2" clip-path="url(#terminal-3178757338-line-20)">&#160;web&#160;application</text><text class="terminal-3178757338-r2" x="1366.4" y="508" textLength="12.2" clip-path="url(#terminal-3178757338-line-20)">
</text><text class="terminal-3178757338-r5" x="61" y="532.4" textLength="36.6" clip-path="url(#terminal-3178757338-line-21)">&#160;•&#160;</text><text class="terminal-3178757338-r6" x="97.6" y="532.4" textLength="122" clip-path="url(#terminal-3178757338-line-21)">SQLAlchemy</text><text class="terminal-3178757338-r1" x="219.6" y="532.4" textLength="122" clip-path="url(#terminal-3178757338-line-21)">&#160;ORM&#160;plus&#160;</text><text class="terminal-3178757338-r6" x="341.6" y="532.4" textLength="73.2" clip-path="url(#terminal-3178757338-line-21)">SQLite</text><text class="terminal-3178757338-r1" x="414.8" y="532.4" textLength="109.8" clip-path="url(#terminal-3178757338-line-21)">&#160;database</text><text class="terminal-3178757338-r2" x="1366.4" y="532.4" textLength="12.2" clip-path="url(#terminal-3178757338-line-21)">
</text><text class="terminal-3178757338-r5" x="61" y="556.8" textLength="36.6" clip-path="url(#terminal-3178757338-line-22)">&#160;•&#160;</text><text class="terminal-3178757338-r6" x="97.6" y="556.8" textLength="134.2" clip-path="url(#terminal-3178757338-line-22)">semantic-ui</text><text class="terminal-3178757338-r1" x="231.8" y="556.8" textLength="170.8" clip-path="url(#terminal-3178757338-line-22)">&#160;CSS&#160;framework</text><text class="terminal-3178757338-r2" x="1366.4" y="556.8" textLength="12.2" clip-path="url(#terminal-3178757338-line-22)">
</text><text class="terminal-3178757338-r2" x="1366.4" y="581.2" textLength="12.2" clip-path="url(#terminal-3178757338-line-23)">
</text><text class="terminal-3178757338-r2" x="1366.4" y="605.6" textLength="12.2" clip-path="url(#terminal-3178757338-line-24)">
</text><text class="terminal-3178757338-r2" x="1366.4" y="630" textLength="12.2" clip-path="url(#terminal-3178757338-line-25)">
</text><text class="terminal-3178757338-r2" x="1366.4" y="654.4" textLength="12.2" clip-path="url(#terminal-3178757338-line-26)">
</text><text class="terminal-3178757338-r2" x="1366.4" y="678.8" textLength="12.2" clip-path="url(#terminal-3178757338-line-27)">
</text><text class="terminal-3178757338-r2" x="1366.4" y="703.2" textLength="12.2" clip-path="url(#terminal-3178757338-line-28)">
</text><text class="terminal-3178757338-r2" x="1366.4" y="727.6" textLength="12.2" clip-path="url(#terminal-3178757338-line-29)">
</text><text class="terminal-3178757338-r7" x="0" y="752" textLength="1366.4" clip-path="url(#terminal-3178757338-line-30)">────────────────────────────────────────────────────────────────────────────────────────────────────────────────</text><text class="terminal-3178757338-r2" x="1366.4" y="752" textLength="12.2" clip-path="url(#terminal-3178757338-line-30)">
</text><text class="terminal-3178757338-r7" x="0" y="776.4" textLength="439.2" clip-path="url(#terminal-3178757338-line-31)">AI&#160;assisted&#160;coding&#160;|&#160;2.&#160;Demo&#160;&#160;&#160;&#160;&#160;&#160;&#160;&#160;</text><text class="terminal-3178757338-r8" x="451.4" y="776.4" textLength="439.2" clip-path="url(#terminal-3178757338-line-31)">&#160;&#160;&#160;&#160;Reloaded&#160;deck&#160;at&#160;11:06:47&#160;AM&#160;&#160;&#160;&#160;</text><text class="terminal-3178757338-r7" x="902.8" y="776.4" textLength="463.6" clip-path="url(#terminal-3178757338-line-31)">&#160;&#160;&#160;&#160;&#160;&#160;&#160;2024-01-19&#160;11:06&#160;AM&#160;&#160;&#160;[03&#160;/&#160;14]</text>
    </g>
    </g>
</svg>
